<?xml version="1.0" encoding="UTF-8"?>
<svg xmlns="http://www.w3.org/2000/svg" xmlns:xlink="http://www.w3.org/1999/xlink" width="512px" height="512px" viewBox="0 0 512 512" version="1.1">
<defs>
<clipPath id="clip1">
  <path d="M 0 0.0585938 L 511.367188 0.0585938 L 511.367188 511.027344 L 0 511.027344 Z M 0 0.0585938 "/>
</clipPath>
<clipPath id="clip2">
  <path d="M 180 68.066406 L 293.867188 68.066406 L 293.867188 238.234375 L 180 238.234375 Z M 180 68.066406 "/>
</clipPath>
<clipPath id="clip3">
  <path d="M 94.007812 119.867188 L 305.433594 21.960938 L 415.730469 372.210938 L 204.300781 470.113281 Z M 94.007812 119.867188 "/>
</clipPath>
<clipPath id="clip4">
  <path d="M 94.007812 119.867188 L 305.433594 21.960938 L 415.730469 372.210938 L 204.300781 470.113281 Z M 94.007812 119.867188 "/>
</clipPath>
<clipPath id="clip5">
  <path d="M 208.019531 92.089844 L 254 92.089844 L 254 144 L 208.019531 144 Z M 208.019531 92.089844 "/>
</clipPath>
<clipPath id="clip6">
  <path d="M 94.007812 119.867188 L 305.433594 21.960938 L 415.730469 372.210938 L 204.300781 470.113281 Z M 94.007812 119.867188 "/>
</clipPath>
<clipPath id="clip7">
  <path d="M 94.007812 119.867188 L 305.433594 21.960938 L 415.730469 372.210938 L 204.300781 470.113281 Z M 94.007812 119.867188 "/>
</clipPath>
<clipPath id="clip8">
  <path d="M 182 150.148438 L 213.796875 150.148438 L 213.796875 197 L 182 197 Z M 182 150.148438 "/>
</clipPath>
<clipPath id="clip9">
  <path d="M 94.007812 119.867188 L 305.433594 21.960938 L 415.730469 372.210938 L 204.300781 470.113281 Z M 94.007812 119.867188 "/>
</clipPath>
<clipPath id="clip10">
  <path d="M 94.007812 119.867188 L 305.433594 21.960938 L 415.730469 372.210938 L 204.300781 470.113281 Z M 94.007812 119.867188 "/>
</clipPath>
<clipPath id="clip11">
  <path d="M 191 226.222656 L 312 226.222656 L 312 432 L 191 432 Z M 191 226.222656 "/>
</clipPath>
<clipPath id="clip12">
  <path d="M 94.007812 119.867188 L 305.433594 21.960938 L 415.730469 372.210938 L 204.300781 470.113281 Z M 94.007812 119.867188 "/>
</clipPath>
<clipPath id="clip13">
  <path d="M 94.007812 119.867188 L 305.433594 21.960938 L 415.730469 372.210938 L 204.300781 470.113281 Z M 94.007812 119.867188 "/>
</clipPath>
<clipPath id="clip14">
  <path d="M 244.339844 256.25 L 293 256.25 L 293 337.328125 L 244.339844 337.328125 Z M 244.339844 256.25 "/>
</clipPath>
<clipPath id="clip15">
  <path d="M 94.007812 119.867188 L 305.433594 21.960938 L 415.730469 372.210938 L 204.300781 470.113281 Z M 94.007812 119.867188 "/>
</clipPath>
<clipPath id="clip16">
  <path d="M 94.007812 119.867188 L 305.433594 21.960938 L 415.730469 372.210938 L 204.300781 470.113281 Z M 94.007812 119.867188 "/>
</clipPath>
<clipPath id="clip17">
  <path d="M 162 317.308594 L 227.832031 317.308594 L 227.832031 398 L 162 398 Z M 162 317.308594 "/>
</clipPath>
<clipPath id="clip18">
  <path d="M 94.007812 119.867188 L 305.433594 21.960938 L 415.730469 372.210938 L 204.300781 470.113281 Z M 94.007812 119.867188 "/>
</clipPath>
<clipPath id="clip19">
  <path d="M 94.007812 119.867188 L 305.433594 21.960938 L 415.730469 372.210938 L 204.300781 470.113281 Z M 94.007812 119.867188 "/>
</clipPath>
<clipPath id="clip20">
  <path d="M 240.210938 224.21875 L 384.671875 224.21875 L 384.671875 421.410156 L 240.210938 421.410156 Z M 240.210938 224.21875 "/>
</clipPath>
<clipPath id="clip21">
  <path d="M 94.007812 119.867188 L 305.433594 21.960938 L 415.730469 372.210938 L 204.300781 470.113281 Z M 94.007812 119.867188 "/>
</clipPath>
<clipPath id="clip22">
  <path d="M 94.007812 119.867188 L 305.433594 21.960938 L 415.730469 372.210938 L 204.300781 470.113281 Z M 94.007812 119.867188 "/>
</clipPath>
</defs>
<g id="surface1">
<g clip-path="url(#clip1)" clip-rule="nonzero">
<path style=" stroke:none;fill-rule:nonzero;fill:rgb(6.666667%,13.725491%,34.901962%);fill-opacity:1;" d="M 0 0.0585938 L 511.910156 0.0585938 L 511.910156 511.027344 L 0 511.027344 Z M 0 0.0585938 "/>
</g>
<g clip-path="url(#clip2)" clip-rule="nonzero">
<g clip-path="url(#clip3)" clip-rule="nonzero">
<g clip-path="url(#clip4)" clip-rule="nonzero">
<path style=" stroke:none;fill-rule:nonzero;fill:rgb(100%,100%,100%);fill-opacity:1;" d="M 235.113281 85.921875 C 235.261719 86.179688 235.207031 86.53125 234.988281 86.707031 C 234.898438 86.785156 234.792969 86.820312 234.683594 86.8125 C 229.957031 86.433594 225.59375 87.203125 221.582031 89.117188 C 220.941406 89.421875 220.21875 89.257812 219.714844 88.695312 C 213.488281 81.726562 203.847656 83.75 198.523438 91.074219 C 194.867188 96.082031 193.800781 105.496094 196.050781 111.820312 C 200.039062 123.097656 210.285156 126.886719 218.921875 120.425781 C 222.59375 117.667969 224.867188 113.867188 225.742188 109.03125 C 225.949219 107.890625 226.722656 107.019531 227.683594 106.851562 C 230.808594 106.292969 233.757812 106.347656 236.535156 107.027344 C 240.390625 107.96875 239.136719 110.984375 238.3125 114.550781 C 236.707031 121.574219 233.589844 127.199219 228.960938 131.421875 C 228.769531 131.597656 228.699219 131.914062 228.789062 132.183594 L 244.464844 177.316406 C 244.578125 177.644531 244.882812 177.820312 245.167969 177.71875 L 272.507812 167.464844 C 272.785156 167.363281 273.019531 167.121094 273.148438 166.796875 C 273.355469 166.285156 273.582031 165.636719 273.835938 164.863281 C 276.3125 157.226562 283.703125 154.761719 289.078125 159.023438 C 295.738281 164.300781 294.917969 176.929688 287.460938 180.984375 C 284.222656 182.742188 280.882812 182.273438 277.433594 179.582031 C 276.984375 179.230469 276.421875 179.175781 275.941406 179.445312 L 250.933594 193.109375 C 250.679688 193.242188 250.558594 193.605469 250.667969 193.914062 C 250.667969 193.914062 250.667969 193.914062 250.667969 193.917969 L 265.726562 237.28125 C 265.820312 237.554688 265.710938 237.867188 265.480469 237.980469 C 265.421875 238.011719 265.363281 238.027344 265.300781 238.023438 L 239.863281 236.980469 C 239.621094 236.972656 239.40625 236.777344 239.332031 236.496094 L 230.007812 203.433594 C 229.953125 203.246094 229.785156 203.144531 229.628906 203.207031 L 201.683594 213.671875 C 201.40625 213.78125 201.199219 214.066406 201.136719 214.414062 C 199.496094 224.207031 191.769531 227.558594 185.171875 222.109375 C 179.015625 217.007812 179.074219 205.328125 185.902344 200.953125 C 189.472656 198.664062 193.019531 198.921875 196.542969 201.726562 C 196.679688 201.835938 196.851562 201.851562 197.003906 201.769531 L 224.882812 187.535156 C 225.378906 187.28125 225.632812 186.601562 225.453125 185.980469 L 212.539062 140.140625 C 212.445312 139.835938 212.207031 139.636719 211.949219 139.65625 C 198.835938 140.324219 186.480469 130.136719 182.816406 114.679688 C 179.492188 100.652344 181.921875 88.535156 190.113281 78.332031 C 195.550781 71.554688 204.925781 67.570312 212.910156 68.691406 C 222.058594 69.964844 229.460938 75.714844 235.113281 85.921875 Z M 235.113281 85.921875 "/>
</g>
</g>
</g>
<g clip-path="url(#clip5)" clip-rule="nonzero">
<g clip-path="url(#clip6)" clip-rule="nonzero">
<g clip-path="url(#clip7)" clip-rule="nonzero">
<path style=" stroke:none;fill-rule:nonzero;fill:rgb(78.823531%,64.313728%,28.627452%);fill-opacity:1;" d="M 209.71875 106.5625 C 208.941406 106.617188 208.46875 106.292969 208.292969 105.589844 C 208.210938 105.277344 208.226562 104.941406 208.339844 104.640625 C 209.105469 102.390625 209.796875 100.992188 210.410156 100.449219 C 218.371094 93.449219 227.167969 90.941406 236.808594 92.929688 C 246.195312 94.878906 253.773438 103.960938 253.535156 116.121094 C 253.292969 128.570312 247.171875 137.59375 238.445312 143.238281 C 237.90625 143.582031 237.242188 143.339844 236.960938 142.699219 C 236.953125 142.683594 236.945312 142.664062 236.941406 142.648438 L 234.347656 136.242188 C 234.046875 135.511719 234.277344 134.625 234.867188 134.230469 C 237.738281 132.328125 240.335938 129.753906 242.644531 126.511719 C 247.121094 120.246094 247.070312 113.746094 242.484375 107.027344 C 238.125 100.628906 229.347656 100.644531 223.289062 103.039062 C 219.089844 104.683594 216.113281 106.28125 214.359375 107.816406 C 213.980469 108.148438 213.53125 108.328125 213.070312 108.328125 C 212.574219 108.316406 211.636719 107.789062 210.265625 106.738281 C 210.105469 106.605469 209.914062 106.546875 209.71875 106.5625 Z M 209.71875 106.5625 "/>
</g>
</g>
</g>
<g clip-path="url(#clip8)" clip-rule="nonzero">
<g clip-path="url(#clip9)" clip-rule="nonzero">
<g clip-path="url(#clip10)" clip-rule="nonzero">
<path style=" stroke:none;fill-rule:nonzero;fill:rgb(78.823531%,64.313728%,28.627452%);fill-opacity:1;" d="M 183.03125 196.785156 C 182.679688 196.914062 182.3125 196.679688 182.207031 196.261719 C 182.179688 196.164062 182.171875 196.066406 182.179688 195.964844 C 183.558594 175.042969 194.550781 160.113281 209.671875 150.585938 C 210.175781 150.261719 210.800781 150.496094 211.070312 151.113281 C 211.097656 151.179688 211.121094 151.246094 211.140625 151.320312 L 213.089844 158.964844 C 213.277344 159.703125 212.988281 160.492188 212.40625 160.8125 C 207.308594 163.660156 202.449219 168.0625 197.824219 174.027344 C 193.601562 179.46875 191.339844 185.773438 191.023438 192.941406 C 190.996094 193.460938 190.714844 193.90625 190.304688 194.0625 Z M 183.03125 196.785156 "/>
</g>
</g>
</g>
<g clip-path="url(#clip11)" clip-rule="nonzero">
<g clip-path="url(#clip12)" clip-rule="nonzero">
<g clip-path="url(#clip13)" clip-rule="nonzero">
<path style=" stroke:none;fill-rule:nonzero;fill:rgb(78.823531%,64.313728%,28.627452%);fill-opacity:1;" d="M 191.851562 229.894531 L 198.902344 226.636719 C 199.300781 226.453125 199.75 226.589844 200.023438 226.976562 C 205.191406 234.101562 212.316406 238.429688 221.402344 239.945312 C 228.203125 241.085938 234.066406 241.6875 238.984375 241.753906 C 249.351562 241.914062 255.628906 242.957031 263.957031 243.085938 C 275.960938 243.277344 287.902344 247.878906 297.09375 256.25 C 308.378906 266.53125 313.054688 280.3125 311.121094 297.601562 C 310.59375 302.304688 309.46875 306.449219 307.746094 310.03125 C 303.15625 319.558594 296.195312 329.386719 288.402344 335.726562 C 281.609375 341.257812 277.109375 346.171875 269.683594 351.195312 C 266.503906 353.355469 262.785156 356 258.539062 359.117188 C 245.828125 368.429688 231.085938 385.582031 238.132812 405.230469 C 241.167969 413.699219 246.109375 419.273438 252.957031 421.941406 C 253.8125 422.285156 254.277344 423.398438 253.996094 424.433594 C 253.984375 424.476562 253.972656 424.523438 253.957031 424.566406 L 251.941406 430.519531 C 251.566406 431.597656 250.539062 432.105469 249.648438 431.65625 C 249.617188 431.640625 249.589844 431.625 249.5625 431.605469 C 242.222656 427.285156 233.285156 418.8125 230.441406 408.890625 C 225.757812 392.476562 229.375 377.050781 239.511719 365.066406 C 246.976562 356.230469 255.058594 349.027344 263.746094 343.453125 C 271.035156 338.769531 275.316406 335.882812 276.589844 334.789062 C 281.480469 330.542969 286.3125 325.863281 291.09375 320.75 C 298.585938 312.765625 305.40625 298.101562 303.058594 285.890625 C 300.617188 273.25 294.882812 264.167969 285.847656 258.652344 C 282.9375 256.871094 277.597656 255.199219 269.828125 253.628906 C 260.3125 251.71875 249.617188 251.097656 237.75 251.761719 C 235.832031 251.863281 230.898438 251.34375 222.941406 250.199219 C 214.382812 248.957031 206.363281 245.347656 198.902344 239.371094 C 195.613281 236.730469 193.167969 233.9375 191.566406 231.003906 C 191.378906 230.660156 191.453125 230.195312 191.730469 229.96875 C 191.769531 229.941406 191.808594 229.914062 191.851562 229.894531 Z M 191.851562 229.894531 "/>
</g>
</g>
</g>
<g clip-path="url(#clip14)" clip-rule="nonzero">
<g clip-path="url(#clip15)" clip-rule="nonzero">
<g clip-path="url(#clip16)" clip-rule="nonzero">
<path style=" stroke:none;fill-rule:nonzero;fill:rgb(100%,100%,100%);fill-opacity:1;" d="M 244.621094 257.144531 C 244.566406 256.945312 244.652344 256.734375 244.808594 256.671875 C 244.835938 256.660156 244.867188 256.65625 244.902344 256.65625 C 254.179688 256.597656 263.304688 257.171875 272.269531 258.382812 C 273.058594 258.484375 273.746094 259.089844 274.078125 259.972656 L 292.789062 310.335938 C 292.902344 310.648438 292.859375 311.007812 292.679688 311.257812 C 285.007812 321.929688 275.226562 330.003906 265.589844 337.011719 C 265.285156 337.234375 264.878906 337.113281 264.691406 336.734375 C 264.65625 336.660156 264.628906 336.585938 264.617188 336.503906 C 260.910156 317.375 254.734375 295.777344 244.621094 257.144531 Z M 244.621094 257.144531 "/>
</g>
</g>
</g>
<g clip-path="url(#clip17)" clip-rule="nonzero">
<g clip-path="url(#clip18)" clip-rule="nonzero">
<g clip-path="url(#clip19)" clip-rule="nonzero">
<path style=" stroke:none;fill-rule:nonzero;fill:rgb(100%,100%,100%);fill-opacity:1;" d="M 203.84375 341.953125 C 203.976562 341.992188 204.054688 342.152344 204.027344 342.316406 C 204.015625 342.382812 203.984375 342.441406 203.941406 342.484375 L 191.476562 354.832031 C 191.238281 355.078125 191.199219 355.507812 191.394531 355.792969 C 191.417969 355.824219 191.4375 355.851562 191.46875 355.878906 C 201.957031 366.503906 213.75 373.621094 226.84375 377.238281 C 227.148438 377.324219 227.335938 377.683594 227.269531 378.046875 C 227.261719 378.097656 227.242188 378.148438 227.222656 378.195312 C 224.804688 384.175781 223.65625 390.464844 223.78125 397.058594 C 223.792969 397.492188 223.511719 397.855469 223.15625 397.871094 C 223.0625 397.875 222.972656 397.855469 222.886719 397.8125 C 208.429688 391.015625 196.253906 379.539062 185.558594 366.011719 C 185.414062 365.832031 185.1875 365.828125 185.042969 366 C 185.003906 366.046875 184.972656 366.101562 184.953125 366.160156 C 183.34375 371.128906 182.339844 376.167969 181.9375 381.28125 C 181.914062 381.589844 181.691406 381.816406 181.4375 381.789062 C 181.308594 381.777344 181.1875 381.699219 181.109375 381.574219 C 168.894531 363.3125 162.628906 342.335938 162.300781 318.65625 C 162.296875 318.203125 162.597656 317.832031 162.964844 317.832031 C 163.121094 317.832031 163.273438 317.894531 163.394531 318.019531 C 167.800781 322.46875 171.246094 325.699219 175.933594 328.90625 C 184.523438 334.792969 193.828125 339.144531 203.84375 341.953125 Z M 203.84375 341.953125 "/>
</g>
</g>
</g>
<g clip-path="url(#clip20)" clip-rule="nonzero">
<g clip-path="url(#clip21)" clip-rule="nonzero">
<g clip-path="url(#clip22)" clip-rule="nonzero">
<path style=" stroke:none;fill-rule:nonzero;fill:rgb(100%,100%,100%);fill-opacity:1;" d="M 372.605469 279.726562 C 372.363281 283.847656 372.128906 287.523438 371.902344 290.746094 C 370.101562 316.148438 362.714844 338.292969 349.742188 357.171875 C 336.644531 376.234375 313.796875 391.230469 310.421875 420.398438 C 310.375 420.847656 310.03125 421.167969 309.65625 421.109375 C 309.527344 421.085938 309.402344 421.019531 309.300781 420.917969 C 306.09375 417.539062 301.304688 413.527344 297.171875 411.863281 C 289.136719 408.601562 282.652344 406.96875 277.71875 406.964844 C 266.042969 406.960938 254.777344 406.300781 243.933594 404.980469 C 242.167969 404.757812 241.148438 403.78125 240.875 402.039062 C 239.417969 392.789062 241.300781 384.601562 246.53125 377.472656 C 246.84375 377.046875 247.277344 376.792969 247.734375 376.773438 C 256.480469 376.28125 266.476562 372.941406 266.828125 360.011719 C 266.855469 358.90625 267.367188 357.898438 268.167969 357.375 C 271.054688 355.476562 277.152344 350.839844 286.453125 343.460938 C 291.902344 339.148438 296.84375 334.273438 301.285156 328.828125 C 301.511719 328.550781 301.882812 328.546875 302.117188 328.824219 C 302.15625 328.871094 302.191406 328.925781 302.21875 328.984375 C 306.492188 338.101562 313.351562 349.546875 323.46875 344.132812 C 346.003906 332.085938 359.015625 305.285156 362.820312 276.632812 C 362.890625 276.152344 362.621094 275.699219 362.21875 275.617188 C 362.164062 275.601562 362.105469 275.601562 362.050781 275.605469 L 345.59375 276.878906 C 345.367188 276.894531 345.171875 276.6875 345.160156 276.414062 C 345.15625 276.292969 345.183594 276.175781 345.246094 276.078125 C 354.949219 260.796875 360.96875 243.738281 363.304688 224.898438 C 363.332031 224.695312 363.488281 224.554688 363.65625 224.585938 C 363.734375 224.597656 363.800781 224.644531 363.851562 224.71875 C 376.574219 243.226562 383.507812 264.167969 384.65625 287.535156 C 384.675781 287.933594 384.425781 288.273438 384.097656 288.292969 C 383.933594 288.304688 383.773438 288.234375 383.65625 288.097656 C 380.527344 284.476562 377.109375 281.503906 373.398438 279.179688 C 373.128906 279.015625 372.792969 279.148438 372.660156 279.476562 C 372.628906 279.558594 372.609375 279.640625 372.605469 279.726562 Z M 372.605469 279.726562 "/>
</g>
</g>
</g>
</g>
</svg>
