<?xml version="1.0" encoding="UTF-8"?>
<svg xmlns="http://www.w3.org/2000/svg" xmlns:xlink="http://www.w3.org/1999/xlink" width="192px" height="192px" viewBox="0 0 192 192" version="1.1">
<defs>
<clipPath id="clip1">
  <path d="M 0 0.0234375 L 191.761719 0.0234375 L 191.761719 191.636719 L 0 191.636719 Z M 0 0.0234375 "/>
</clipPath>
<clipPath id="clip2">
  <path d="M 67.484375 25.523438 L 110.199219 25.523438 L 110.199219 89.335938 L 67.484375 89.335938 Z M 67.484375 25.523438 "/>
</clipPath>
<clipPath id="clip3">
  <path d="M 35.253906 44.949219 L 114.539062 8.234375 L 155.898438 139.578125 L 76.613281 176.292969 Z M 35.253906 44.949219 "/>
</clipPath>
<clipPath id="clip4">
  <path d="M 35.253906 44.949219 L 114.539062 8.234375 L 155.898438 139.578125 L 76.613281 176.292969 Z M 35.253906 44.949219 "/>
</clipPath>
<clipPath id="clip5">
  <path d="M 78.007812 34.535156 L 95.34375 34.535156 L 95.34375 54 L 78.007812 54 Z M 78.007812 34.535156 "/>
</clipPath>
<clipPath id="clip6">
  <path d="M 35.253906 44.949219 L 114.539062 8.234375 L 155.898438 139.578125 L 76.613281 176.292969 Z M 35.253906 44.949219 "/>
</clipPath>
<clipPath id="clip7">
  <path d="M 35.253906 44.949219 L 114.539062 8.234375 L 155.898438 139.578125 L 76.613281 176.292969 Z M 35.253906 44.949219 "/>
</clipPath>
<clipPath id="clip8">
  <path d="M 68.101562 56.304688 L 80 56.304688 L 80 73.945312 L 68.101562 73.945312 Z M 68.101562 56.304688 "/>
</clipPath>
<clipPath id="clip9">
  <path d="M 35.253906 44.949219 L 114.539062 8.234375 L 155.898438 139.578125 L 76.613281 176.292969 Z M 35.253906 44.949219 "/>
</clipPath>
<clipPath id="clip10">
  <path d="M 35.253906 44.949219 L 114.539062 8.234375 L 155.898438 139.578125 L 76.613281 176.292969 Z M 35.253906 44.949219 "/>
</clipPath>
<clipPath id="clip11">
  <path d="M 71.507812 84.832031 L 117 84.832031 L 117 162 L 71.507812 162 Z M 71.507812 84.832031 "/>
</clipPath>
<clipPath id="clip12">
  <path d="M 35.253906 44.949219 L 114.539062 8.234375 L 155.898438 139.578125 L 76.613281 176.292969 Z M 35.253906 44.949219 "/>
</clipPath>
<clipPath id="clip13">
  <path d="M 35.253906 44.949219 L 114.539062 8.234375 L 155.898438 139.578125 L 76.613281 176.292969 Z M 35.253906 44.949219 "/>
</clipPath>
<clipPath id="clip14">
  <path d="M 91.628906 96.09375 L 109.890625 96.09375 L 109.890625 126.5 L 91.628906 126.5 Z M 91.628906 96.09375 "/>
</clipPath>
<clipPath id="clip15">
  <path d="M 35.253906 44.949219 L 114.539062 8.234375 L 155.898438 139.578125 L 76.613281 176.292969 Z M 35.253906 44.949219 "/>
</clipPath>
<clipPath id="clip16">
  <path d="M 35.253906 44.949219 L 114.539062 8.234375 L 155.898438 139.578125 L 76.613281 176.292969 Z M 35.253906 44.949219 "/>
</clipPath>
<clipPath id="clip17">
  <path d="M 60.671875 119 L 85.4375 119 L 85.4375 149.394531 L 60.671875 149.394531 Z M 60.671875 119 "/>
</clipPath>
<clipPath id="clip18">
  <path d="M 35.253906 44.949219 L 114.539062 8.234375 L 155.898438 139.578125 L 76.613281 176.292969 Z M 35.253906 44.949219 "/>
</clipPath>
<clipPath id="clip19">
  <path d="M 35.253906 44.949219 L 114.539062 8.234375 L 155.898438 139.578125 L 76.613281 176.292969 Z M 35.253906 44.949219 "/>
</clipPath>
<clipPath id="clip20">
  <path d="M 90.078125 84.082031 L 144.25 84.082031 L 144.25 158 L 90.078125 158 Z M 90.078125 84.082031 "/>
</clipPath>
<clipPath id="clip21">
  <path d="M 35.253906 44.949219 L 114.539062 8.234375 L 155.898438 139.578125 L 76.613281 176.292969 Z M 35.253906 44.949219 "/>
</clipPath>
<clipPath id="clip22">
  <path d="M 35.253906 44.949219 L 114.539062 8.234375 L 155.898438 139.578125 L 76.613281 176.292969 Z M 35.253906 44.949219 "/>
</clipPath>
</defs>
<g id="surface1">
<g clip-path="url(#clip1)" clip-rule="nonzero">
<path style=" stroke:none;fill-rule:nonzero;fill:rgb(6.666667%,13.725491%,34.901962%);fill-opacity:1;" d="M 0 0.0234375 L 191.964844 0.0234375 L 191.964844 191.636719 L 0 191.636719 Z M 0 0.0234375 "/>
</g>
<g clip-path="url(#clip2)" clip-rule="nonzero">
<g clip-path="url(#clip3)" clip-rule="nonzero">
<g clip-path="url(#clip4)" clip-rule="nonzero">
<path style=" stroke:none;fill-rule:nonzero;fill:rgb(100%,100%,100%);fill-opacity:1;" d="M 88.167969 32.222656 C 88.222656 32.316406 88.203125 32.449219 88.121094 32.515625 C 88.085938 32.542969 88.046875 32.558594 88.007812 32.554688 C 86.234375 32.410156 84.597656 32.699219 83.09375 33.417969 C 82.855469 33.535156 82.582031 33.472656 82.394531 33.261719 C 80.058594 30.648438 76.441406 31.40625 74.445312 34.152344 C 73.074219 36.03125 72.675781 39.5625 73.519531 41.933594 C 75.015625 46.160156 78.855469 47.582031 82.09375 45.160156 C 83.472656 44.125 84.324219 42.699219 84.652344 40.886719 C 84.730469 40.457031 85.019531 40.132812 85.382812 40.070312 C 86.550781 39.859375 87.660156 39.878906 88.699219 40.136719 C 90.144531 40.488281 89.675781 41.617188 89.367188 42.957031 C 88.765625 45.589844 87.597656 47.699219 85.859375 49.28125 C 85.789062 49.347656 85.761719 49.46875 85.796875 49.570312 L 91.675781 66.492188 C 91.71875 66.617188 91.832031 66.683594 91.9375 66.644531 L 102.191406 62.800781 C 102.292969 62.761719 102.382812 62.671875 102.429688 62.546875 C 102.507812 62.355469 102.59375 62.113281 102.6875 61.824219 C 103.617188 58.960938 106.390625 58.035156 108.402344 59.632812 C 110.902344 61.613281 110.59375 66.347656 107.796875 67.871094 C 106.585938 68.527344 105.332031 68.351562 104.039062 67.34375 C 103.871094 67.210938 103.65625 67.191406 103.476562 67.292969 L 94.101562 72.417969 C 94.003906 72.464844 93.960938 72.601562 94 72.71875 L 99.648438 88.980469 C 99.683594 89.082031 99.640625 89.199219 99.554688 89.242188 C 99.535156 89.253906 99.511719 89.257812 99.488281 89.257812 L 89.949219 88.867188 C 89.855469 88.863281 89.777344 88.792969 89.75 88.6875 L 86.253906 76.289062 C 86.230469 76.21875 86.167969 76.179688 86.109375 76.203125 L 75.632812 80.128906 C 75.527344 80.167969 75.449219 80.273438 75.425781 80.40625 C 74.8125 84.078125 71.914062 85.335938 69.4375 83.289062 C 67.128906 81.378906 67.152344 77 69.714844 75.359375 C 71.050781 74.5 72.382812 74.59375 73.703125 75.648438 C 73.753906 75.6875 73.820312 75.695312 73.875 75.664062 L 84.332031 70.324219 C 84.515625 70.230469 84.613281 69.976562 84.546875 69.742188 L 79.703125 52.554688 C 79.667969 52.4375 79.578125 52.363281 79.480469 52.371094 C 74.5625 52.621094 69.929688 48.800781 68.554688 43.003906 C 67.308594 37.746094 68.222656 33.199219 71.292969 29.375 C 73.332031 26.832031 76.847656 25.339844 79.839844 25.757812 C 83.273438 26.238281 86.046875 28.394531 88.167969 32.222656 Z M 88.167969 32.222656 "/>
</g>
</g>
</g>
<g clip-path="url(#clip5)" clip-rule="nonzero">
<g clip-path="url(#clip6)" clip-rule="nonzero">
<g clip-path="url(#clip7)" clip-rule="nonzero">
<path style=" stroke:none;fill-rule:nonzero;fill:rgb(78.823531%,64.313728%,28.627452%);fill-opacity:1;" d="M 78.644531 39.960938 C 78.351562 39.980469 78.175781 39.859375 78.109375 39.597656 C 78.078125 39.480469 78.085938 39.351562 78.128906 39.242188 C 78.414062 38.394531 78.671875 37.871094 78.90625 37.667969 C 81.890625 35.042969 85.1875 34.101562 88.804688 34.847656 C 92.324219 35.578125 95.164062 38.984375 95.074219 43.546875 C 94.984375 48.214844 92.6875 51.597656 89.417969 53.714844 C 89.214844 53.84375 88.964844 53.753906 88.859375 53.511719 C 88.855469 53.507812 88.855469 53.5 88.851562 53.492188 L 87.878906 51.089844 C 87.769531 50.816406 87.855469 50.484375 88.074219 50.335938 C 89.152344 49.625 90.125 48.660156 90.992188 47.441406 C 92.671875 45.09375 92.652344 42.65625 90.933594 40.136719 C 89.296875 37.734375 86.007812 37.742188 83.734375 38.640625 C 82.160156 39.257812 81.042969 39.855469 80.382812 40.429688 C 80.242188 40.554688 80.074219 40.625 79.902344 40.625 C 79.714844 40.617188 79.363281 40.421875 78.851562 40.027344 C 78.789062 39.976562 78.71875 39.953125 78.644531 39.960938 Z M 78.644531 39.960938 "/>
</g>
</g>
</g>
<g clip-path="url(#clip8)" clip-rule="nonzero">
<g clip-path="url(#clip9)" clip-rule="nonzero">
<g clip-path="url(#clip10)" clip-rule="nonzero">
<path style=" stroke:none;fill-rule:nonzero;fill:rgb(78.823531%,64.313728%,28.627452%);fill-opacity:1;" d="M 68.636719 73.792969 C 68.503906 73.84375 68.367188 73.753906 68.328125 73.597656 C 68.316406 73.5625 68.3125 73.523438 68.316406 73.488281 C 68.835938 65.640625 72.957031 60.042969 78.625 56.46875 C 78.816406 56.347656 79.050781 56.433594 79.152344 56.667969 C 79.160156 56.691406 79.171875 56.71875 79.179688 56.746094 L 79.90625 59.613281 C 79.980469 59.886719 79.871094 60.183594 79.652344 60.304688 C 77.738281 61.371094 75.917969 63.023438 74.183594 65.257812 C 72.601562 67.300781 71.753906 69.664062 71.632812 72.351562 C 71.625 72.546875 71.515625 72.714844 71.363281 72.773438 Z M 68.636719 73.792969 "/>
</g>
</g>
</g>
<g clip-path="url(#clip11)" clip-rule="nonzero">
<g clip-path="url(#clip12)" clip-rule="nonzero">
<g clip-path="url(#clip13)" clip-rule="nonzero">
<path style=" stroke:none;fill-rule:nonzero;fill:rgb(78.823531%,64.313728%,28.627452%);fill-opacity:1;" d="M 71.945312 86.210938 L 74.585938 84.988281 C 74.738281 84.917969 74.90625 84.96875 75.007812 85.117188 C 76.945312 87.789062 79.617188 89.410156 83.027344 89.980469 C 85.578125 90.40625 87.773438 90.632812 89.617188 90.660156 C 93.507812 90.71875 95.859375 91.109375 98.984375 91.15625 C 103.484375 91.230469 107.964844 92.953125 111.410156 96.09375 C 115.640625 99.949219 117.394531 105.117188 116.667969 111.601562 C 116.472656 113.363281 116.050781 114.917969 115.40625 116.261719 C 113.683594 119.835938 111.074219 123.519531 108.152344 125.898438 C 105.601562 127.972656 103.917969 129.8125 101.132812 131.699219 C 99.9375 132.507812 98.542969 133.5 96.953125 134.667969 C 92.1875 138.160156 86.65625 144.59375 89.300781 151.960938 C 90.4375 155.136719 92.292969 157.226562 94.859375 158.230469 C 95.179688 158.355469 95.355469 158.773438 95.25 159.164062 C 95.246094 159.179688 95.238281 159.195312 95.234375 159.210938 L 94.476562 161.445312 C 94.335938 161.847656 93.953125 162.039062 93.617188 161.871094 C 93.605469 161.863281 93.597656 161.859375 93.585938 161.851562 C 90.832031 160.230469 87.480469 157.054688 86.414062 153.335938 C 84.660156 147.179688 86.015625 141.394531 89.816406 136.898438 C 92.617188 133.585938 95.648438 130.886719 98.90625 128.792969 C 101.636719 127.039062 103.246094 125.957031 103.722656 125.546875 C 105.554688 123.953125 107.367188 122.199219 109.160156 120.28125 C 111.96875 117.289062 114.527344 111.789062 113.648438 107.210938 C 112.730469 102.46875 110.582031 99.0625 107.195312 96.996094 C 106.101562 96.328125 104.097656 95.699219 101.183594 95.113281 C 97.617188 94.394531 93.605469 94.160156 89.15625 94.410156 C 88.4375 94.449219 86.585938 94.253906 83.601562 93.824219 C 80.394531 93.359375 77.386719 92.007812 74.589844 89.765625 C 73.355469 88.773438 72.4375 87.726562 71.835938 86.625 C 71.765625 86.496094 71.796875 86.324219 71.898438 86.238281 C 71.914062 86.230469 71.929688 86.21875 71.945312 86.210938 Z M 71.945312 86.210938 "/>
</g>
</g>
</g>
<g clip-path="url(#clip14)" clip-rule="nonzero">
<g clip-path="url(#clip15)" clip-rule="nonzero">
<g clip-path="url(#clip16)" clip-rule="nonzero">
<path style=" stroke:none;fill-rule:nonzero;fill:rgb(100%,100%,100%);fill-opacity:1;" d="M 91.734375 96.429688 C 91.710938 96.355469 91.746094 96.277344 91.804688 96.253906 C 91.8125 96.246094 91.824219 96.246094 91.839844 96.246094 C 95.316406 96.222656 98.738281 96.441406 102.101562 96.894531 C 102.398438 96.929688 102.65625 97.160156 102.777344 97.488281 L 109.796875 116.375 C 109.839844 116.492188 109.820312 116.628906 109.753906 116.722656 C 106.878906 120.722656 103.210938 123.75 99.597656 126.378906 C 99.480469 126.464844 99.332031 126.417969 99.261719 126.277344 C 99.246094 126.246094 99.234375 126.21875 99.230469 126.1875 C 97.839844 119.015625 95.523438 110.917969 91.734375 96.429688 Z M 91.734375 96.429688 "/>
</g>
</g>
</g>
<g clip-path="url(#clip17)" clip-rule="nonzero">
<g clip-path="url(#clip18)" clip-rule="nonzero">
<g clip-path="url(#clip19)" clip-rule="nonzero">
<path style=" stroke:none;fill-rule:nonzero;fill:rgb(100%,100%,100%);fill-opacity:1;" d="M 76.441406 128.234375 C 76.492188 128.246094 76.519531 128.304688 76.511719 128.367188 C 76.503906 128.394531 76.496094 128.414062 76.476562 128.429688 L 71.804688 133.0625 C 71.714844 133.152344 71.699219 133.316406 71.773438 133.421875 C 71.78125 133.433594 71.789062 133.445312 71.800781 133.453125 C 75.734375 137.4375 80.15625 140.109375 85.066406 141.464844 C 85.179688 141.496094 85.25 141.632812 85.226562 141.765625 C 85.222656 141.785156 85.214844 141.804688 85.210938 141.824219 C 84.300781 144.066406 83.871094 146.421875 83.917969 148.898438 C 83.921875 149.058594 83.816406 149.195312 83.683594 149.203125 C 83.648438 149.203125 83.613281 149.195312 83.582031 149.179688 C 78.160156 146.628906 73.59375 142.328125 69.585938 137.253906 C 69.53125 137.1875 69.445312 137.1875 69.390625 137.25 C 69.375 137.265625 69.363281 137.289062 69.359375 137.308594 C 68.753906 139.171875 68.378906 141.0625 68.226562 142.980469 C 68.21875 143.097656 68.132812 143.183594 68.039062 143.171875 C 67.992188 143.167969 67.945312 143.136719 67.917969 143.089844 C 63.335938 136.242188 60.984375 128.375 60.863281 119.496094 C 60.859375 119.324219 60.972656 119.1875 61.113281 119.1875 C 61.171875 119.1875 61.226562 119.210938 61.273438 119.257812 C 62.925781 120.925781 64.21875 122.136719 65.976562 123.339844 C 69.195312 125.546875 72.6875 127.179688 76.441406 128.234375 Z M 76.441406 128.234375 "/>
</g>
</g>
</g>
<g clip-path="url(#clip20)" clip-rule="nonzero">
<g clip-path="url(#clip21)" clip-rule="nonzero">
<g clip-path="url(#clip22)" clip-rule="nonzero">
<path style=" stroke:none;fill-rule:nonzero;fill:rgb(100%,100%,100%);fill-opacity:1;" d="M 139.726562 104.898438 C 139.636719 106.441406 139.550781 107.820312 139.464844 109.03125 C 138.789062 118.554688 136.019531 126.859375 131.152344 133.941406 C 126.242188 141.089844 117.671875 146.710938 116.410156 157.648438 C 116.390625 157.816406 116.261719 157.9375 116.121094 157.917969 C 116.074219 157.90625 116.027344 157.882812 115.988281 157.84375 C 114.785156 156.578125 112.988281 155.074219 111.441406 154.449219 C 108.425781 153.226562 105.992188 152.613281 104.144531 152.613281 C 99.765625 152.609375 95.542969 152.363281 91.476562 151.867188 C 90.8125 151.785156 90.429688 151.417969 90.328125 150.765625 C 89.78125 147.296875 90.488281 144.226562 92.449219 141.554688 C 92.566406 141.394531 92.730469 141.296875 92.902344 141.289062 C 96.179688 141.105469 99.929688 139.851562 100.058594 135.003906 C 100.070312 134.589844 100.261719 134.210938 100.5625 134.015625 C 101.644531 133.304688 103.933594 131.566406 107.417969 128.796875 C 109.464844 127.179688 111.316406 125.351562 112.980469 123.3125 C 113.066406 123.207031 113.207031 123.207031 113.292969 123.308594 C 113.308594 123.328125 113.320312 123.347656 113.332031 123.371094 C 114.933594 126.789062 117.507812 131.082031 121.300781 129.050781 C 129.75 124.53125 134.632812 114.480469 136.058594 103.738281 C 136.085938 103.558594 135.984375 103.386719 135.832031 103.355469 C 135.8125 103.351562 135.789062 103.351562 135.769531 103.351562 L 129.597656 103.828125 C 129.511719 103.835938 129.441406 103.757812 129.433594 103.65625 C 129.433594 103.609375 129.445312 103.566406 129.46875 103.53125 C 133.105469 97.800781 135.363281 91.402344 136.238281 84.335938 C 136.25 84.261719 136.308594 84.207031 136.371094 84.21875 C 136.398438 84.222656 136.425781 84.242188 136.445312 84.269531 C 141.214844 91.210938 143.816406 99.0625 144.246094 107.824219 C 144.253906 107.976562 144.160156 108.101562 144.035156 108.109375 C 143.976562 108.113281 143.914062 108.089844 143.871094 108.035156 C 142.699219 106.679688 141.414062 105.566406 140.023438 104.691406 C 139.921875 104.628906 139.796875 104.679688 139.746094 104.804688 C 139.738281 104.835938 139.730469 104.863281 139.726562 104.898438 Z M 139.726562 104.898438 "/>
</g>
</g>
</g>
</g>
</svg>
